<?xml version="1.0" standalone="no"?>
<!DOCTYPE svg PUBLIC "-//W3C//DTD SVG 20010904//EN"
 "http://www.w3.org/TR/2001/REC-SVG-20010904/DTD/svg10.dtd">
<svg version="1.0" xmlns="http://www.w3.org/2000/svg"
 width="300.000000pt" height="300.000000pt" viewBox="0 0 300.000000 300.000000"
 preserveAspectRatio="xMidYMid meet">
<metadata>
Created by potrace 1.11, written by Peter Selinger 2001-2013
</metadata>
<g transform="translate(0.000000,300.000000) scale(0.100000,-0.100000)"
fill="#000000" stroke="none">
<path d="M1418 2833 c-19 -21 -128 -218 -128 -230 0 -4 24 -21 53 -37 261
-146 571 -419 783 -691 126 -161 203 -285 298 -480 105 -215 189 -459 232
-673 14 -73 23 -125 28 -177 3 -29 5 -30 57 -30 75 0 218 22 235 36 8 6 14 24
14 40 0 53 -31 221 -65 355 -114 444 -299 822 -568 1156 -86 108 -284 313
-376 388 -29 25 -59 50 -66 56 -39 38 -252 191 -339 243 -107 65 -133 72 -158
44z"/>
<path d="M1180 2407 c-30 -56 -73 -135 -96 -177 -67 -123 -350 -642 -371 -680
-11 -19 -39 -71 -63 -115 -55 -103 -86 -159 -147 -270 -28 -49 -66 -119 -85
-155 -20 -36 -91 -166 -158 -290 -68 -124 -136 -250 -153 -280 -16 -30 -42
-78 -58 -106 -17 -30 -27 -60 -24 -73 5 -27 33 -50 55 -46 8 1 47 6 85 9 39 4
81 9 95 11 25 4 90 11 185 21 28 3 66 7 85 9 19 2 60 7 90 10 30 3 71 8 90 10
19 2 60 7 90 10 30 3 71 8 90 10 19 3 62 7 95 10 33 3 71 8 85 10 14 3 48 7
75 10 99 10 160 17 185 20 14 2 57 7 95 10 39 4 84 9 100 11 17 2 55 6 85 9
30 3 69 7 85 10 17 2 57 7 90 10 144 15 231 25 264 30 13 3 58 7 100 10 42 4
83 8 91 10 8 2 47 7 85 10 39 4 80 8 93 10 13 2 53 7 90 11 37 3 70 8 73 10 3
2 2 29 -3 61 -4 32 -10 73 -13 90 -3 18 -10 54 -16 80 -6 27 -12 55 -14 63
-44 210 -178 537 -315 770 -141 240 -377 508 -610 693 -47 38 -93 75 -104 84
-25 21 -208 138 -243 156 l-29 15 -54 -101z m483 -555 c169 -75 162 -316 -12
-388 -97 -40 -226 15 -268 116 -44 103 1 215 112 276 34 19 121 17 168 -4z
m-449 -545 c94 -53 105 -189 20 -256 -102 -81 -252 -9 -255 122 -3 118 130
194 235 134z m573 -128 c53 -17 118 -89 129 -143 18 -86 -8 -161 -73 -215 -67
-55 -150 -64 -229 -23 -149 76 -149 291 1 370 58 30 103 33 172 11z m-806
-286 c49 -28 79 -87 74 -145 -4 -58 -16 -80 -58 -112 -131 -100 -308 45 -235
193 40 81 141 110 219 64z"/>
</g>
</svg>
